<svg xmlns="http://www.w3.org/2000/svg" viewBox="0 0 1500 500" width="1500" height="500">
  <defs>
    <filter id="rough" x="-25%" y="-25%" width="150%" height="150%">
      <feTurbulence type="fractalNoise" baseFrequency="0.035" numOctaves="2" seed="7" result="n"/>
      <feDisplacementMap in="SourceGraphic" in2="n" scale="2.4" xChannelSelector="R" yChannelSelector="G"/>
    </filter>
    <radialGradient id="glowG" cx="18%" cy="20%" r="70%">
      <stop offset="0%" stop-color="#00E599" stop-opacity=".10"/>
      <stop offset="100%" stop-color="#00E599" stop-opacity="0"/>
    </radialGradient>
    <radialGradient id="glowP" cx="88%" cy="80%" r="60%">
      <stop offset="0%" stop-color="#8247E5" stop-opacity=".14"/>
      <stop offset="100%" stop-color="#8247E5" stop-opacity="0"/>
    </radialGradient>
  </defs>

  <rect width="1500" height="500" fill="#05070A"/>
  <rect width="1500" height="500" fill="url(#glowG)"/>
  <rect width="1500" height="500" fill="url(#glowP)"/>
  <g opacity=".85"><line x1="558.4" y1="161.3" x2="2195.6" y2="1659.2" stroke="#FF2D9E" stroke-width="1.44" stroke-opacity="0.33" stroke-linecap="round"/><line x1="1412.3" y1="961.8" x2="1889.9" y2="849.4" stroke="#FF2D9E" stroke-width="1.09" stroke-opacity="0.19" stroke-linecap="round"/><line x1="1424.6" y1="153.8" x2="1860.5" y2="-234.3" stroke="#8247E5" stroke-width="0.67" stroke-opacity="0.20" stroke-linecap="round"/><line x1="1545.2" y1="-81.2" x2="1590.1" y2="-345.2" stroke="#00E599" stroke-width="1.13" stroke-opacity="0.19" stroke-linecap="round"/><line x1="-67.4" y1="15.1" x2="553.2" y2="1497.6" stroke="#FF2D9E" stroke-width="0.80" stroke-opacity="0.28" stroke-linecap="round"/><line x1="123.2" y1="997.4" x2="591.9" y2="1235.7" stroke="#00E599" stroke-width="1.09" stroke-opacity="0.38" stroke-linecap="round"/><line x1="75.2" y1="59.1" x2="328.9" y2="-251.3" stroke="#FF2D9E" stroke-width="0.78" stroke-opacity="0.23" stroke-linecap="round"/><line x1="150.8" y1="-157.5" x2="481.4" y2="-160.7" stroke="#8247E5" stroke-width="0.72" stroke-opacity="0.23" stroke-linecap="round"/><line x1="944.0" y1="443.4" x2="1120.5" y2="922.4" stroke="#00E599" stroke-width="0.96" stroke-opacity="0.30" stroke-linecap="round"/><line x1="994.8" y1="623.8" x2="1437.5" y2="810.7" stroke="#8247E5" stroke-width="0.90" stroke-opacity="0.36" stroke-linecap="round"/><line x1="-14.7" y1="111.7" x2="612.1" y2="-420.7" stroke="#00E599" stroke-width="1.38" stroke-opacity="0.27" stroke-linecap="round"/><line x1="295.8" y1="-195.4" x2="858.5" y2="-198.7" stroke="#00E599" stroke-width="0.73" stroke-opacity="0.34" stroke-linecap="round"/><line x1="1115.7" y1="515.2" x2="2286.4" y2="1268.7" stroke="#00E599" stroke-width="1.08" stroke-opacity="0.45" stroke-linecap="round"/><line x1="245.0" y1="515.9" x2="-1400.9" y2="310.0" stroke="#FF2D9E" stroke-width="0.99" stroke-opacity="0.40" stroke-linecap="round"/><line x1="-379.7" y1="440.0" x2="-543.9" y2="594.8" stroke="#00E599" stroke-width="1.15" stroke-opacity="0.33" stroke-linecap="round"/><line x1="-255.0" y1="490.6" x2="-1919.5" y2="372.9" stroke="#FF2D9E" stroke-width="0.86" stroke-opacity="0.28" stroke-linecap="round"/><line x1="-1272.8" y1="451.2" x2="-1889.2" y2="-119.2" stroke="#FF2D9E" stroke-width="0.60" stroke-opacity="0.22" stroke-linecap="round"/><line x1="-320.7" y1="450.2" x2="1036.4" y2="1910.2" stroke="#8247E5" stroke-width="0.87" stroke-opacity="0.44" stroke-linecap="round"/><line x1="77.2" y1="880.2" x2="126.1" y2="1634.5" stroke="#00E599" stroke-width="1.09" stroke-opacity="0.28" stroke-linecap="round"/><line x1="1273.1" y1="27.0" x2="803.5" y2="283.9" stroke="#FF2D9E" stroke-width="0.80" stroke-opacity="0.35" stroke-linecap="round"/><line x1="1248.5" y1="145.0" x2="-4.0" y2="60.2" stroke="#8247E5" stroke-width="0.93" stroke-opacity="0.42" stroke-linecap="round"/><line x1="102.1" y1="414.8" x2="1430.0" y2="908.1" stroke="#00E599" stroke-width="0.74" stroke-opacity="0.36" stroke-linecap="round"/><line x1="1457.0" y1="382.0" x2="2088.2" y2="137.8" stroke="#00E599" stroke-width="0.90" stroke-opacity="0.31" stroke-linecap="round"/><line x1="1725.7" y1="235.2" x2="2032.4" y2="-507.6" stroke="#FF2D9E" stroke-width="0.67" stroke-opacity="0.38" stroke-linecap="round"/><line x1="51.9" y1="529.2" x2="1100.1" y2="2496.6" stroke="#FF2D9E" stroke-width="1.24" stroke-opacity="0.43" stroke-linecap="round"/><line x1="751.5" y1="1055.1" x2="278.6" y2="1759.6" stroke="#FF2D9E" stroke-width="0.76" stroke-opacity="0.35" stroke-linecap="round"/><line x1="506.5" y1="80.5" x2="738.6" y2="-297.1" stroke="#8247E5" stroke-width="1.38" stroke-opacity="0.47" stroke-linecap="round"/><line x1="613.2" y1="-164.3" x2="299.1" y2="-750.9" stroke="#00E599" stroke-width="1.19" stroke-opacity="0.26" stroke-linecap="round"/><line x1="942.4" y1="500.5" x2="391.8" y2="389.2" stroke="#00E599" stroke-width="0.98" stroke-opacity="0.32" stroke-linecap="round"/><line x1="571.5" y1="453.8" x2="242.5" y2="682.2" stroke="#00E599" stroke-width="0.62" stroke-opacity="0.20" stroke-linecap="round"/><line x1="1254.6" y1="111.9" x2="2394.5" y2="543.0" stroke="#8247E5" stroke-width="1.03" stroke-opacity="0.22" stroke-linecap="round"/><line x1="1814.4" y1="346.2" x2="1965.5" y2="1119.4" stroke="#00E599" stroke-width="0.69" stroke-opacity="0.22" stroke-linecap="round"/><line x1="662.0" y1="199.1" x2="1765.2" y2="-1131.9" stroke="#00E599" stroke-width="1.18" stroke-opacity="0.30" stroke-linecap="round"/><line x1="1166.4" y1="-437.9" x2="1891.4" y2="-490.6" stroke="#00E599" stroke-width="0.50" stroke-opacity="0.27" stroke-linecap="round"/><line x1="15.0" y1="187.1" x2="374.0" y2="1004.5" stroke="#8247E5" stroke-width="0.73" stroke-opacity="0.43" stroke-linecap="round"/><line x1="283.2" y1="660.5" x2="505.6" y2="701.8" stroke="#FF2D9E" stroke-width="1.19" stroke-opacity="0.26" stroke-linecap="round"/><line x1="1559.1" y1="351.8" x2="2113.3" y2="-108.3" stroke="#8247E5" stroke-width="1.38" stroke-opacity="0.24" stroke-linecap="round"/><line x1="559.0" y1="196.2" x2="-303.5" y2="358.4" stroke="#8247E5" stroke-width="0.98" stroke-opacity="0.44" stroke-linecap="round"/><line x1="240.1" y1="269.6" x2="25.8" y2="864.1" stroke="#00E599" stroke-width="0.62" stroke-opacity="0.34" stroke-linecap="round"/><line x1="1542.2" y1="46.9" x2="-432.5" y2="223.7" stroke="#FF2D9E" stroke-width="0.76" stroke-opacity="0.36" stroke-linecap="round"/><line x1="144.5" y1="94.4" x2="-68.0" y2="556.1" stroke="#00E599" stroke-width="0.82" stroke-opacity="0.41" stroke-linecap="round"/><line x1="615.6" y1="194.1" x2="1318.1" y2="-1263.1" stroke="#00E599" stroke-width="0.97" stroke-opacity="0.39" stroke-linecap="round"/><line x1="817.7" y1="-771.8" x2="1390.3" y2="-942.0" stroke="#FF2D9E" stroke-width="0.65" stroke-opacity="0.20" stroke-linecap="round"/><line x1="1226.5" y1="336.8" x2="1607.8" y2="16.4" stroke="#FF2D9E" stroke-width="0.96" stroke-opacity="0.25" stroke-linecap="round"/><line x1="1408.7" y1="181.5" x2="1924.3" y2="350.5" stroke="#8247E5" stroke-width="0.55" stroke-opacity="0.17" stroke-linecap="round"/><line x1="1388.3" y1="499.6" x2="1860.1" y2="255.0" stroke="#FF2D9E" stroke-width="1.30" stroke-opacity="0.49" stroke-linecap="round"/><polygon points="52.80,325.68 106.91,332.42 75.33,382.80" fill="none" stroke="#8247E5" stroke-width="1.27" stroke-opacity="0.21" stroke-linejoin="round"/><polygon points="543.82,253.52 798.45,269.86 694.47,408.71" fill="none" stroke="#FF2D9E" stroke-width="1.08" stroke-opacity="0.32" stroke-linejoin="round"/><polygon points="907.00,471.32 782.99,460.55 839.88,365.23" fill="none" stroke="#00E599" stroke-width="0.95" stroke-opacity="0.54" stroke-linejoin="round"/><polygon points="797.14,502.82 845.76,369.88 933.68,447.35" fill="none" stroke="#FF2D9E" stroke-width="0.83" stroke-opacity="0.54" stroke-linejoin="round"/><polygon points="750.36,145.42 672.87,105.36 729.34,78.19" fill="none" stroke="#00E599" stroke-width="0.98" stroke-opacity="0.41" stroke-linejoin="round"/><polygon points="689.05,31.15 763.28,135.68 641.40,145.96" fill="none" stroke="#FF2D9E" stroke-width="0.62" stroke-opacity="0.51" stroke-linejoin="round"/><polygon points="896.50,315.60 845.35,432.22 735.44,346.94" fill="none" stroke="#00E599" stroke-width="0.73" stroke-opacity="0.45" stroke-linejoin="round"/><polygon points="897.11,444.68 710.56,366.06 833.04,248.78" fill="none" stroke="#00E599" stroke-width="0.97" stroke-opacity="0.35" stroke-linejoin="round"/><polygon points="556.06,615.68 606.76,321.65 843.99,491.33" fill="none" stroke="#FF2D9E" stroke-width="1.06" stroke-opacity="0.47" stroke-linejoin="round"/><polygon points="786.39,581.22 511.88,461.16 716.10,282.83" fill="none" stroke="#8247E5" stroke-width="0.69" stroke-opacity="0.42" stroke-linejoin="round"/><polygon points="1085.43,143.84 921.44,265.97 880.90,90.32" fill="none" stroke="#8247E5" stroke-width="1.26" stroke-opacity="0.25" stroke-linejoin="round"/><polygon points="887.18,259.66 951.18,37.49 1104.27,204.08" fill="none" stroke="#00E599" stroke-width="0.97" stroke-opacity="0.29" stroke-linejoin="round"/><polygon points="800.15,284.25 690.10,415.41 636.31,292.61" fill="none" stroke="#00E599" stroke-width="0.90" stroke-opacity="0.41" stroke-linejoin="round"/><polygon points="306.70,496.56 375.85,347.87 435.20,435.68" fill="none" stroke="#00E599" stroke-width="1.36" stroke-opacity="0.31" stroke-linejoin="round"/><polygon points="280.94,349.25 462.57,441.04 309.79,578.42" fill="none" stroke="#00E599" stroke-width="0.82" stroke-opacity="0.20" stroke-linejoin="round"/><polygon points="551.36,390.18 524.09,530.04 438.32,441.79" fill="none" stroke="#00E599" stroke-width="1.18" stroke-opacity="0.26" stroke-linejoin="round"/><polygon points="485.88,378.41 549.99,481.90 435.51,466.26" fill="none" stroke="#00E599" stroke-width="0.86" stroke-opacity="0.51" stroke-linejoin="round"/><polygon points="404.73,400.78 97.82,432.45 169.24,203.73" fill="none" stroke="#8247E5" stroke-width="1.02" stroke-opacity="0.46" stroke-linejoin="round"/><polygon points="802.95,168.51 874.25,100.60 916.57,169.67" fill="none" stroke="#00E599" stroke-width="0.80" stroke-opacity="0.42" stroke-linejoin="round"/><polygon points="372.44,443.51 181.64,408.17 262.25,297.47" fill="none" stroke="#8247E5" stroke-width="0.65" stroke-opacity="0.44" stroke-linejoin="round"/><polygon points="357.19,110.44 27.96,238.65 113.56,-42.80" fill="none" stroke="#FF2D9E" stroke-width="0.90" stroke-opacity="0.23" stroke-linejoin="round"/><circle cx="689.8" cy="381.0" r="2.1" fill="none" stroke="#00E599" stroke-width="0.9" stroke-opacity="0.33"/><circle cx="644.6" cy="24.0" r="1.7" fill="none" stroke="#8247E5" stroke-width="0.9" stroke-opacity="0.64"/><circle cx="382.1" cy="351.5" r="1.4" fill="none" stroke="#00E599" stroke-width="0.9" stroke-opacity="0.65"/><circle cx="1261.4" cy="285.3" r="2.3" fill="none" stroke="#00E599" stroke-width="0.9" stroke-opacity="0.54"/><circle cx="258.9" cy="339.7" r="1.3" fill="none" stroke="#8247E5" stroke-width="0.9" stroke-opacity="0.55"/><circle cx="302.9" cy="428.4" r="1.6" fill="none" stroke="#00E599" stroke-width="0.9" stroke-opacity="0.48"/><circle cx="709.7" cy="94.5" r="1.9" fill="none" stroke="#FF2D9E" stroke-width="0.9" stroke-opacity="0.59"/><circle cx="1425.2" cy="325.8" r="1.6" fill="none" stroke="#00E599" stroke-width="0.9" stroke-opacity="0.52"/><circle cx="1410.1" cy="93.5" r="1.7" fill="none" stroke="#FF2D9E" stroke-width="0.9" stroke-opacity="0.55"/><circle cx="1311.9" cy="95.5" r="3.4" fill="none" stroke="#FF2D9E" stroke-width="0.9" stroke-opacity="0.35"/><circle cx="574.3" cy="223.2" r="2.7" fill="none" stroke="#FF2D9E" stroke-width="0.9" stroke-opacity="0.43"/><circle cx="447.5" cy="104.2" r="2.3" fill="none" stroke="#8247E5" stroke-width="0.9" stroke-opacity="0.37"/><circle cx="221.2" cy="55.7" r="2.6" fill="none" stroke="#00E599" stroke-width="0.9" stroke-opacity="0.36"/><circle cx="1090.9" cy="299.0" r="2.2" fill="none" stroke="#8247E5" stroke-width="0.9" stroke-opacity="0.39"/><circle cx="745.2" cy="485.2" r="1.6" fill="none" stroke="#FF2D9E" stroke-width="0.9" stroke-opacity="0.53"/><circle cx="1006.5" cy="171.5" r="2.3" fill="none" stroke="#00E599" stroke-width="0.9" stroke-opacity="0.42"/><circle cx="1283.1" cy="127.5" r="3.2" fill="none" stroke="#00E599" stroke-width="0.9" stroke-opacity="0.29"/><circle cx="1143.8" cy="202.0" r="1.3" fill="none" stroke="#8247E5" stroke-width="0.9" stroke-opacity="0.35"/><circle cx="6.2" cy="375.0" r="1.2" fill="none" stroke="#00E599" stroke-width="0.9" stroke-opacity="0.29"/><circle cx="179.0" cy="494.9" r="2.0" fill="none" stroke="#FF2D9E" stroke-width="0.9" stroke-opacity="0.46"/></g>

  <text x="300.0" y="155.0" font-size="100" fill="#FFFFFF" font-family="Helvetica, Arial, sans-serif" font-weight="900" letter-spacing="-2" transform="rotate(-4 300.0 152.0)">P</text><text x="368.0" y="149.0" font-size="100" fill="#FFFFFF" font-family="Helvetica, Arial, sans-serif" font-weight="900" letter-spacing="-2" transform="rotate(2.5 368.0 152.0)">O</text><text x="436.0" y="155.0" font-size="100" fill="#FFFFFF" font-family="Helvetica, Arial, sans-serif" font-weight="900" letter-spacing="-2" transform="rotate(-1.5 436.0 152.0)">L</text><text x="496.0" y="149.0" font-size="100" fill="#FFFFFF" font-family="Helvetica, Arial, sans-serif" font-weight="900" letter-spacing="-2" transform="rotate(3.5 496.0 152.0)">Y</text><text x="564.0" y="155.0" font-size="100" fill="#FFFFFF" font-family="Helvetica, Arial, sans-serif" font-weight="900" letter-spacing="-2" transform="rotate(-2.5 564.0 152.0)">G</text><text x="632.0" y="149.0" font-size="100" fill="#FFFFFF" font-family="Helvetica, Arial, sans-serif" font-weight="900" letter-spacing="-2" transform="rotate(1.5 632.0 152.0)">O</text><text x="700.0" y="155.0" font-size="100" fill="#FFFFFF" font-family="Helvetica, Arial, sans-serif" font-weight="900" letter-spacing="-2" transform="rotate(-3 700.0 152.0)">N</text>
  <text x="328.0" y="255.0" font-size="100" fill="#00E599" font-family="Helvetica, Arial, sans-serif" font-weight="900" letter-spacing="-2" transform="rotate(-4 328.0 252.0)">R</text><text x="396.0" y="249.0" font-size="100" fill="#00E599" font-family="Helvetica, Arial, sans-serif" font-weight="900" letter-spacing="-2" transform="rotate(2.5 396.0 252.0)">E</text><text x="464.0" y="255.0" font-size="100" fill="#00E599" font-family="Helvetica, Arial, sans-serif" font-weight="900" letter-spacing="-2" transform="rotate(-1.5 464.0 252.0)">A</text><text x="532.0" y="249.0" font-size="100" fill="#00E599" font-family="Helvetica, Arial, sans-serif" font-weight="900" letter-spacing="-2" transform="rotate(3.5 532.0 252.0)">L</text><text x="592.0" y="255.0" font-size="100" fill="#00E599" font-family="Helvetica, Arial, sans-serif" font-weight="900" letter-spacing="-2" transform="rotate(-2.5 592.0 252.0)">M</text>
  <text x="310.0" y="355.0" font-size="100" fill="#FFFFFF" font-family="Helvetica, Arial, sans-serif" font-weight="900" letter-spacing="-2" transform="rotate(-4 310.0 352.0)">B</text><text x="378.0" y="349.0" font-size="100" fill="#FFFFFF" font-family="Helvetica, Arial, sans-serif" font-weight="900" letter-spacing="-2" transform="rotate(2.5 378.0 352.0)">O</text><text x="446.0" y="355.0" font-size="100" fill="#FFFFFF" font-family="Helvetica, Arial, sans-serif" font-weight="900" letter-spacing="-2" transform="rotate(-1.5 446.0 352.0)">A</text><text x="514.0" y="349.0" font-size="100" fill="#FFFFFF" font-family="Helvetica, Arial, sans-serif" font-weight="900" letter-spacing="-2" transform="rotate(3.5 514.0 352.0)">R</text><text x="582.0" y="355.0" font-size="100" fill="#FFFFFF" font-family="Helvetica, Arial, sans-serif" font-weight="900" letter-spacing="-2" transform="rotate(-2.5 582.0 352.0)">D</text>

  <path d="M302 386 C 450 362, 610 406, 755 374 C 850 354, 930 382, 1000 366"
        fill="none" stroke="#FF2D9E" stroke-width="9" stroke-linecap="round"/>
  <path d="M320 406 C 460 388, 590 424, 730 398"
        fill="none" stroke="#00E599" stroke-width="5" stroke-linecap="round" stroke-opacity=".75"/>

  <text x="302" y="452" font-size="25" fill="#8492A3" font-family="Helvetica, Arial, sans-serif"
        font-weight="700" letter-spacing="6">STEPN WANTED BOARD · BUY ORDERS · PUBLICLY ANONYMOUS</text>

  
<g transform="translate(1075 78) scale(2.35)">
  <g filter="url(#rough)" fill="none" stroke-linecap="round" stroke-linejoin="round">
    <path d="M25 52 L31 14 L49 36 L66 8 L82 35 L101 17 L104 55" stroke="#00E599" stroke-width="5"/>
    <circle cx="66" cy="6" r="3.4" fill="#FF2D9E" stroke="none"/>
    <path d="M24 66 C21 42, 42 30, 64 31 C 88 32, 108 42, 106 68 C 104 96, 86 114, 62 112 C 38 110, 27 92, 24 66 Z" stroke="#F2F6FA" stroke-width="5"/>
    <path d="M42 66 C42 58, 50 55, 55 60 C 60 65, 55 74, 48 73 C 44 72, 42 70, 42 66 Z" stroke="#F2F6FA" stroke-width="4"/>
    <circle cx="50" cy="66" r="3.6" fill="#8247E5" stroke="none"/>
    <path d="M76 57 L92 71 M92 57 L76 71" stroke="#F2F6FA" stroke-width="4.6"/>
    <path d="M42 88 C 50 98, 60 96, 68 89 C 76 82, 86 86, 90 94" stroke="#FF2D9E" stroke-width="4.6"/>
    <path d="M62 92 L65 99 L69 92" stroke="#F2F6FA" stroke-width="3"/>
    <path d="M34 124 C 52 116, 70 130, 92 120" stroke="#00E599" stroke-width="3.2" stroke-opacity=".85"/>
  </g>
  <g fill="none" stroke-linecap="round" stroke-linejoin="round">
    <circle cx="120" cy="30" r="7" stroke="#FF2D9E" stroke-width="2.6"/>
    <path d="M12 108 L22 92 L30 110 Z" stroke="#8247E5" stroke-width="2.6"/>
    <path d="M112 96 L124 108 M124 96 L112 108" stroke="#00E599" stroke-width="2.8"/>
  </g>
</g>

  <g fill="none" stroke-linecap="round">
    <path d="M960 120 L1000 160 M1000 120 L960 160" stroke="#FF2D9E" stroke-width="5"/>
    <circle cx="930" cy="330" r="16" stroke="#00E599" stroke-width="4"/>
    <path d="M1400 400 L1432 356 L1458 404 Z" stroke="#8247E5" stroke-width="4" stroke-linejoin="round"/>
    <path d="M1440 96 l7 15 16 2 -12 11 3 16 -14-8 -14 8 3-16 -12-11 16-2 Z" stroke="#FF2D9E" stroke-width="3.4" stroke-linejoin="round"/>
  </g>
</svg>
